<svg width="50" height="50" viewBox="0 0 50 50" fill="none" xmlns="http://www.w3.org/2000/svg">
<g id="bootstrap-brands-solid 1">
<path id="Vector" d="M28.9497 19.668C28.9497 17.5098 27.5955 16.3184 25.217 16.3184H20.842V23.2715H24.5313C27.3785 23.2617 28.9497 21.9727 28.9497 19.668ZM44.8785 18.418C44.0538 15.4004 43.9323 11.6992 44.0278 8.83789C44.1233 5.85938 42.0573 3.125 39.2795 3.125H10.7379C7.95142 3.125 5.89412 5.86914 5.98961 8.83789C6.07642 11.6992 5.96357 15.4004 5.13892 18.418C4.30558 21.4453 2.90801 23.3594 0.607666 23.6035V26.3867C2.89933 26.6309 4.30558 28.5449 5.13892 31.5723C5.96357 34.5898 6.0851 38.291 5.98961 41.1523C5.89412 44.1309 7.9601 46.8652 10.7379 46.8652H39.2709C42.0573 46.8652 44.1146 44.1211 44.0191 41.1523C43.9323 38.291 44.0452 34.5898 44.8698 31.5723C45.7032 28.5449 47.1007 26.6309 49.3924 26.3867V23.6035C47.1094 23.3594 45.7032 21.4453 44.8785 18.418ZM26.0591 36.6309H17.5608V13.3594H26.0157C29.7743 13.3594 32.2396 15.6445 32.2396 19.1602C32.2396 21.6309 30.5816 23.8379 28.4636 24.2188V24.3457C31.3455 24.6973 33.2813 26.9434 33.2813 30.0391C33.2813 34.1504 30.5643 36.6309 26.0591 36.6309ZM25.191 26.0156H20.842V33.6719H25.382C28.3507 33.6719 29.9219 32.334 29.9219 29.8145C29.9219 27.3047 28.3073 26.0156 25.191 26.0156Z" fill="#FAFAFA"/>
</g>
</svg>
