<svg width="50" height="50" viewBox="0 0 50 50" fill="none" xmlns="http://www.w3.org/2000/svg">
<g id="express-svgrepo-com 2">
<g id="Group">
<path id="Vector" d="M0.325415 29.0165V23.4519H7.27302V23.1265H0.325415V18.05H7.71233V17.7246H0V29.3419H7.77742V29.0165H0.325415ZM14.0417 20.9788L11.1617 24.7698L8.34689 20.9788H7.92385L10.9665 25.0139L7.63098 29.3419H8.02148L11.1617 25.258L14.3183 29.3419H14.725L11.3733 25.0139L14.4322 20.9788H14.0417ZM15.7013 32.2056V26.9989H15.7338C15.9291 27.7582 16.3141 28.3684 16.889 28.8294C17.4639 29.2904 18.1961 29.5209 19.0856 29.5209C19.6605 29.5209 20.1703 29.4043 20.615 29.1711C21.0598 28.9379 21.4313 28.6206 21.7296 28.2192C22.0279 27.8179 22.2557 27.3515 22.413 26.82C22.5702 26.2884 22.6489 25.7298 22.6489 25.1441C22.6489 24.5149 22.5675 23.9346 22.4048 23.4031C22.2421 22.8716 22.0062 22.4106 21.697 22.0201C21.3879 21.6296 21.0137 21.3259 20.5744 21.1089C20.135 20.892 19.6388 20.7835 19.0856 20.7835C18.6625 20.7835 18.2693 20.8459 17.906 20.9706C17.5426 21.0954 17.2199 21.2716 16.9378 21.4994C16.6558 21.7272 16.4118 21.9957 16.2057 22.3048C15.9996 22.614 15.8423 22.9529 15.7338 23.3217H15.7013V20.9788H15.3759V32.2056H15.7013ZM19.0856 29.2118C18.0659 29.2118 17.247 28.8619 16.6287 28.1623C16.0104 27.4626 15.7013 26.4566 15.7013 25.1441C15.7013 24.6017 15.7772 24.0865 15.9291 23.5983C16.0809 23.1102 16.3006 22.6818 16.588 22.313C16.8755 21.9442 17.2307 21.6513 17.6538 21.4343C18.0768 21.2174 18.5541 21.1089 19.0856 21.1089C19.6279 21.1089 20.1025 21.2174 20.5093 21.4343C20.916 21.6513 21.2523 21.9469 21.5181 22.3211C21.7838 22.6953 21.9845 23.1238 22.1201 23.6065C22.2557 24.0892 22.3235 24.6017 22.3235 25.1441C22.3235 25.6322 22.2611 26.1176 22.1363 26.6003C22.0116 27.083 21.8191 27.5169 21.5587 27.902C21.2984 28.287 20.9649 28.6016 20.5581 28.8457C20.1513 29.0897 19.6605 29.2118 19.0856 29.2118ZM24.4387 29.3419V24.6071C24.4387 24.1516 24.5037 23.7068 24.6339 23.2729C24.7641 22.839 24.9647 22.4567 25.2359 22.1258C25.5071 21.795 25.8515 21.5347 26.2691 21.3449C26.6867 21.155 27.183 21.0764 27.7579 21.1089V20.7835C27.2589 20.7727 26.8223 20.8269 26.4481 20.9462C26.0739 21.0655 25.7512 21.2282 25.48 21.4343C25.2088 21.6404 24.9919 21.8818 24.8292 22.1584C24.6664 22.435 24.5471 22.7306 24.4712 23.0451H24.4387V20.9788H24.1132V29.3419H24.4387ZM28.1647 25.2254H35.1611C35.1828 24.6505 35.1258 24.0973 34.9902 23.5658C34.8546 23.0343 34.6377 22.5624 34.3394 22.1503C34.0411 21.7381 33.656 21.4072 33.1842 21.1577C32.7123 20.9083 32.151 20.7835 31.5002 20.7835C31.0337 20.7835 30.5782 20.8811 30.1334 21.0764C29.6887 21.2716 29.2982 21.5564 28.9619 21.9306C28.6257 22.3048 28.3545 22.7631 28.1484 23.3055C27.9423 23.8478 27.8392 24.4661 27.8392 25.1603C27.8392 25.7786 27.9098 26.3562 28.0508 26.8932C28.1918 27.4301 28.4087 27.8965 28.7016 28.2925C28.9945 28.6884 29.3714 28.9948 29.8324 29.2118C30.2934 29.4287 30.8493 29.5317 31.5002 29.5209C32.4547 29.5209 33.2574 29.2524 33.9082 28.7155C34.5591 28.1786 34.9441 27.422 35.0635 26.4457H34.738C34.597 27.3677 34.2364 28.0592 33.656 28.5202C33.0757 28.9813 32.3462 29.2118 31.4676 29.2118C30.871 29.2118 30.3666 29.1087 29.9544 28.9026C29.5422 28.6965 29.206 28.4145 28.9457 28.0565C28.6853 27.6986 28.4928 27.2783 28.368 26.7955C28.2433 26.3128 28.1755 25.7895 28.1647 25.2254ZM34.8357 24.9H28.1647C28.1972 24.3143 28.3057 23.7882 28.4901 23.3217C28.6745 22.8553 28.9158 22.4567 29.2141 22.1258C29.5124 21.795 29.8595 21.5428 30.2555 21.3693C30.6514 21.1957 31.0771 21.1089 31.5327 21.1089C32.0751 21.1089 32.5523 21.2093 32.9645 21.4099C33.3767 21.6106 33.7211 21.8845 33.9977 22.2316C34.2743 22.5787 34.4831 22.9828 34.6241 23.4438C34.7652 23.9048 34.8357 24.3902 34.8357 24.9ZM41.9134 23.4519H42.2389C42.2389 22.5191 41.9677 21.8411 41.4253 21.4181C40.883 20.995 40.1454 20.7835 39.2125 20.7835C38.6918 20.7835 38.2525 20.8486 37.8946 20.9788C37.5366 21.1089 37.2437 21.2771 37.0159 21.4832C36.7882 21.6892 36.6255 21.917 36.5278 22.1665C36.4302 22.416 36.3814 22.6546 36.3814 22.8824C36.3814 23.338 36.4627 23.7014 36.6254 23.9726C36.7882 24.2438 37.0431 24.4553 37.3902 24.6071C37.6288 24.7156 37.9 24.8132 38.2037 24.9C38.5074 24.9868 38.86 25.079 39.2613 25.1766C39.6193 25.2634 39.9718 25.3502 40.3189 25.4369C40.666 25.5237 40.9724 25.6403 41.2382 25.7868C41.504 25.9332 41.7209 26.1203 41.889 26.3481C42.0572 26.5759 42.1412 26.8742 42.1412 27.243C42.1412 27.601 42.0572 27.9047 41.889 28.1542C41.7209 28.4036 41.5067 28.607 41.2463 28.7643C40.986 28.9216 40.6958 29.0355 40.3759 29.106C40.0559 29.1765 39.744 29.2118 39.4403 29.2118C38.4532 29.2118 37.6966 28.9921 37.1705 28.5528C36.6444 28.1135 36.3814 27.422 36.3814 26.4783H36.056C36.056 27.5305 36.3407 28.3006 36.9102 28.7887C37.4797 29.2768 38.323 29.5209 39.4403 29.5209C39.7982 29.5209 40.1589 29.4802 40.5223 29.3989C40.8857 29.3175 41.2111 29.1846 41.4985 29.0002C41.786 28.8158 42.0192 28.5772 42.1982 28.2843C42.3772 27.9914 42.4666 27.6335 42.4666 27.2105C42.4666 26.8091 42.388 26.4837 42.2307 26.2342C42.0734 25.9847 41.8673 25.7786 41.6124 25.6159C41.3575 25.4532 41.0701 25.3258 40.7501 25.2336C40.4301 25.1414 40.1074 25.0519 39.782 24.9651C39.3264 24.8458 38.9278 24.7427 38.5861 24.6559C38.2444 24.5692 37.9271 24.4661 37.6342 24.3468C37.3522 24.2275 37.1271 24.0566 36.959 23.8343C36.7909 23.6119 36.7068 23.2946 36.7068 22.8824C36.7068 22.8065 36.7285 22.6709 36.7719 22.4757C36.8153 22.2804 36.9183 22.0825 37.081 21.8818C37.2437 21.6811 37.4932 21.5021 37.8295 21.3449C38.1657 21.1876 38.6267 21.1089 39.2125 21.1089C39.6138 21.1089 39.9799 21.1523 40.3108 21.2391C40.6416 21.3259 40.9263 21.4642 41.165 21.654C41.4036 21.8438 41.588 22.0852 41.7182 22.378C41.8484 22.6709 41.9134 23.0289 41.9134 23.4519ZM49.4468 23.4519H49.7722C49.7722 22.5191 49.501 21.8411 48.9587 21.4181C48.4163 20.995 47.6787 20.7835 46.7459 20.7835C46.2252 20.7835 45.7859 20.8486 45.4279 20.9788C45.07 21.1089 44.7771 21.2771 44.5493 21.4832C44.3215 21.6892 44.1588 21.917 44.0612 22.1665C43.9636 22.416 43.9147 22.6546 43.9147 22.8824C43.9147 23.338 43.9961 23.7014 44.1588 23.9726C44.3215 24.2438 44.5764 24.4553 44.9235 24.6071C45.1622 24.7156 45.4333 24.8132 45.7371 24.9C46.0408 24.9868 46.3933 25.079 46.7947 25.1766C47.1526 25.2634 47.5051 25.3502 47.8523 25.4369C48.1994 25.5237 48.5058 25.6403 48.7716 25.7868C49.0373 25.9332 49.2543 26.1203 49.4224 26.3481C49.5905 26.5759 49.6746 26.8742 49.6746 27.243C49.6746 27.601 49.5905 27.9047 49.4224 28.1542C49.2543 28.4036 49.04 28.607 48.7797 28.7643C48.5194 28.9216 48.2292 29.0355 47.9092 29.106C47.5892 29.1765 47.2774 29.2118 46.9736 29.2118C45.9865 29.2118 45.23 28.9921 44.7039 28.5528C44.1778 28.1135 43.9147 27.422 43.9147 26.4783H43.5893C43.5893 27.5305 43.8741 28.3006 44.4435 28.7887C45.013 29.2768 45.8564 29.5209 46.9736 29.5209C47.3316 29.5209 47.6923 29.4802 48.0556 29.3989C48.419 29.3175 48.7444 29.1846 49.0319 29.0002C49.3193 28.8158 49.5526 28.5772 49.7315 28.2843C49.9105 27.9914 50 27.6335 50 27.2105C50 26.8091 49.9214 26.4837 49.7641 26.2342C49.6068 25.9847 49.4007 25.7786 49.1458 25.6159C48.8909 25.4532 48.6034 25.3258 48.2834 25.2336C47.9634 25.1414 47.6407 25.0519 47.3153 24.9651C46.8597 24.8458 46.4611 24.7427 46.1194 24.6559C45.7777 24.5692 45.4605 24.4661 45.1676 24.3468C44.8856 24.2275 44.6605 24.0566 44.4924 23.8343C44.3242 23.6119 44.2402 23.2946 44.2402 22.8824C44.2402 22.8065 44.2618 22.6709 44.3052 22.4757C44.3486 22.2804 44.4517 22.0825 44.6144 21.8818C44.7771 21.6811 45.0266 21.5021 45.3628 21.3449C45.6991 21.1876 46.1601 21.1089 46.7459 21.1089C47.1472 21.1089 47.5133 21.1523 47.8441 21.2391C48.175 21.3259 48.4597 21.4642 48.6983 21.654C48.937 21.8438 49.1214 22.0852 49.2515 22.378C49.3817 22.6709 49.4468 23.0289 49.4468 23.4519Z" fill="#FAFAFA"/>
</g>
</g>
</svg>
