<svg width="50" height="50" viewBox="0 0 50 50" fill="none" xmlns="http://www.w3.org/2000/svg">
<g id="figma-brands-solid 1">
<path id="Vector" d="M1.82288 9.35547C1.82288 4.18945 7.40881 0 14.2968 0H35.7031C42.5911 0 48.177 4.18945 48.177 9.35547C48.177 12.627 45.9375 15.5078 42.539 17.1777C45.9375 18.8477 48.177 21.7285 48.177 25C48.177 30.166 42.5911 34.3555 35.7031 34.3555H35.4296C32.2005 34.3555 29.2578 33.4375 27.0442 31.9238V40.5469C27.0442 45.7812 21.3151 50 14.3619 50C7.48694 50 1.82288 45.8203 1.82288 40.6445C1.82288 37.373 4.06246 34.4922 7.44788 32.8223C4.06246 31.1523 1.82288 28.2715 1.82288 25C1.82288 21.7285 4.06246 18.8477 7.44788 17.1777C4.06246 15.5078 1.82288 12.627 1.82288 9.35547ZM22.9557 18.7109H14.2968C9.66142 18.7109 5.91142 21.5234 5.91142 25C5.91142 28.457 9.63538 31.2695 14.2448 31.2891C14.2578 31.2891 14.2838 31.2891 14.2968 31.2891H22.9557V18.7109ZM27.0442 25C27.0442 28.4766 30.7942 31.2891 35.4296 31.2891H35.7031C40.3255 31.2891 44.0885 28.4766 44.0885 25C44.0885 21.5234 40.3255 18.7109 35.7031 18.7109H35.4296C30.7942 18.7109 27.0442 21.5234 27.0442 25ZM14.2968 34.3555C14.2838 34.3555 14.2578 34.3555 14.2448 34.3555C9.63538 34.375 5.91142 37.1875 5.91142 40.6445C5.91142 44.1113 9.7135 46.9336 14.3619 46.9336C19.0885 46.9336 22.9557 44.0625 22.9557 40.5469V34.3555H14.2968ZM14.2968 3.06641C9.66142 3.06641 5.91142 5.87891 5.91142 9.35547C5.91142 12.832 9.66142 15.6445 14.2968 15.6445H22.9557V3.06641H14.2968ZM27.0442 15.6445H35.7031C40.3255 15.6445 44.0885 12.832 44.0885 9.35547C44.0885 5.87891 40.3255 3.06641 35.7031 3.06641H27.0442V15.6445Z" fill="#FAFAFA"/>
</g>
</svg>
