<svg width="50" height="50" viewBox="0 0 50 50" fill="none" xmlns="http://www.w3.org/2000/svg">
<g id="git-alt-brands-solid 2" clip-path="url(#clip0_17_244)">
<path id="Vector" d="M49.0625 23.0566L27.2322 3.95501C26.6276 3.42784 25.8089 3.13184 24.9554 3.13184C24.1019 3.13184 23.2832 3.42784 22.6786 3.95501L18.1362 7.91985L23.884 12.9492C26.9085 12.0605 29.7657 14.5898 28.7277 17.2167L34.2746 22.0702C38.0916 20.9179 41.105 25.0976 38.2366 27.6074C35.2791 30.1952 30.4018 27.3241 31.9867 23.9648L26.8081 19.4335V31.3378C29.6317 32.5585 29.2969 35.4296 27.8237 36.7089C27.468 37.0213 27.0454 37.2692 26.58 37.4383C26.1146 37.6075 25.6156 37.6945 25.1117 37.6945C24.6077 37.6945 24.1087 37.6075 23.6433 37.4383C23.1779 37.2692 22.7553 37.0213 22.3996 36.7089C20.4353 34.9902 21.1608 32.1288 23.6608 31.2402V19.2284C21.3393 18.3984 20.9152 16.2304 21.5849 14.8339L15.9152 9.86321L0.948703 22.9589C0.346227 23.4879 0.00793457 24.2043 0.00793457 24.9511C0.00793457 25.6979 0.346227 26.4143 0.948703 26.9433L22.7791 46.0449C23.3836 46.572 24.2023 46.868 25.0558 46.868C25.9094 46.868 26.7281 46.572 27.3326 46.0449L49.0625 27.0312C49.665 26.5022 50.0033 25.7858 50.0033 25.039C50.0033 24.2922 49.665 23.5758 49.0625 23.0468V23.0566Z" fill="#FAFAFA"/>
</g>
<defs>
<clipPath id="clip0_17_244">
<rect width="50" height="50" fill="white"/>
</clipPath>
</defs>
</svg>
