<svg width="50" height="50" viewBox="0 0 50 50" fill="none" xmlns="http://www.w3.org/2000/svg">
<g id="square-js-brands-solid 2">
<path id="Vector" d="M50 9.375C50 5.92773 46.7969 3.125 42.8571 3.125H7.14286C3.20312 3.125 0 5.92773 0 9.375V40.625C0 44.0723 3.20312 46.875 7.14286 46.875H42.8571C46.7969 46.875 50 44.0723 50 40.625V9.375ZM20.1897 43.4473C16.4286 43.4473 14.2522 41.748 13.1362 39.6875L16.9643 37.666C17.7009 38.8086 18.3705 39.7754 19.9888 39.7754C21.529 39.7754 22.5112 39.248 22.5112 37.1875V23.2129H27.2098V37.2461C27.2098 41.5039 24.3527 43.4473 20.1897 43.4473ZM29.7656 39.248L33.5938 37.3145C34.5982 38.75 35.9152 39.8145 38.2254 39.8145C40.1674 39.8145 41.4174 38.9648 41.4174 37.7832C41.4174 36.377 40.1451 35.8789 37.9911 35.0488L36.8192 34.6094C33.4263 33.3496 31.183 31.7578 31.183 28.4082C31.183 25.3223 33.8728 22.9785 38.058 22.9785C41.0491 22.9785 43.192 23.8867 44.7321 26.2695L41.0714 28.3203C40.2679 27.0605 39.3973 26.5625 38.0469 26.5625C36.6741 26.5625 35.8036 27.3242 35.8036 28.3203C35.8036 29.5508 36.6741 30.0488 38.6942 30.8203L39.8661 31.2598C43.8616 32.7539 46.1049 34.2871 46.1049 37.7246C46.1049 41.416 42.779 43.4473 38.3259 43.4473C33.9621 43.4473 31.1384 41.6309 29.7656 39.248Z" fill="#FAFAFA"/>
</g>
</svg>
