<svg width="50" height="50" viewBox="0 0 50 50" fill="none" xmlns="http://www.w3.org/2000/svg">
<g id="Jest 1" clip-path="url(#clip0_74_4)">
<path id="Vector" d="M48.4878 24.6172C48.4878 21.6125 46.2113 19.084 43.155 18.3625L50 0.0441895H16.0781L22.9386 18.4204C19.9785 19.2 17.7964 21.6844 17.7964 24.6325C17.7964 26.7989 18.991 28.72 20.8054 29.9043C20.0898 30.829 19.2613 31.6817 18.3226 32.4903C16.5558 33.9934 14.5964 35.1485 12.48 35.9145C10.5699 34.7442 9.74253 32.6782 10.4902 30.8286C13.4031 30.02 15.5214 27.5497 15.5214 24.6461C15.5214 21.0786 12.3214 18.1883 8.40425 18.1883C4.47222 18.1883 1.27417 21.0922 1.27417 24.661C1.27417 26.4239 2.06909 28.0411 3.34331 29.1961C3.23159 29.3993 3.12066 29.6004 3.00894 29.8172C1.94253 31.8118 0.732375 34.0653 0.269875 36.5938C-0.653172 41.6489 0.858938 45.7094 4.50425 48.0059C6.55816 49.2922 8.81948 49.9422 11.255 49.9422C15.4402 49.9422 19.6914 48.0348 23.7976 46.1852C26.7273 44.8715 29.7515 43.4981 32.7285 42.8344C33.8273 42.5887 34.973 42.4438 36.1832 42.2852C38.6335 41.9676 41.1652 41.6352 43.4417 40.436C46.1 39.0352 47.9144 36.6942 48.4406 34.0075C48.8371 31.9411 48.4406 29.8614 47.421 28.0411C48.1175 27.0353 48.49 25.8406 48.4878 24.6172ZM45.3843 24.6172C45.3843 26.625 43.5851 28.2579 41.3726 28.2579C39.1601 28.2579 37.3609 26.625 37.3609 24.6172C37.3609 23.9668 37.5519 23.3461 37.8859 22.8118C38.0128 22.6086 38.173 22.4075 38.3312 22.2336C38.4989 22.0549 38.6858 21.8952 38.8886 21.7575L38.9054 21.7422C39.032 21.6555 39.1753 21.5684 39.3187 21.4829C39.3187 21.4829 39.3343 21.4829 39.3343 21.4676C39.398 21.4387 39.4621 21.3958 39.5265 21.3668C39.5418 21.3668 39.557 21.3516 39.5734 21.3516C39.6378 21.3243 39.7171 21.2954 39.796 21.2661C39.8714 21.2398 39.9458 21.2108 40.0191 21.1793C40.0347 21.1793 40.0511 21.1637 40.0664 21.1637C40.1304 21.1504 40.1945 21.1211 40.2574 21.1075C40.2742 21.1075 40.3062 21.0922 40.3214 21.0922C40.4007 21.0786 40.4648 21.0633 40.5441 21.0493H40.5609L40.7992 21.0051C40.8156 21.0051 40.846 21.0051 40.8628 20.9915C40.9269 20.9915 40.9898 20.9762 41.0539 20.9762H41.1332C41.2125 20.9762 41.2933 20.9625 41.3878 20.9625H41.5953C41.6578 20.9625 41.707 20.9625 41.7695 20.9762H41.8015C41.9296 20.9918 42.0562 21.0051 42.1843 21.0344C43.9988 21.3805 45.3843 22.8547 45.3843 24.6172ZM20.5183 2.93286H45.5582L39.8117 18.3184C39.5734 18.3625 39.3339 18.434 39.096 18.5059L33.0476 7.3106L26.982 18.4336C26.7425 18.3622 26.4878 18.318 26.2343 18.275L20.5183 2.93286ZM31.9 23.3594C31.598 22.0012 30.8335 20.7883 29.7515 19.8926L33.0476 13.8547L36.3738 20.0223C35.3867 20.918 34.6707 22.0594 34.3839 23.3594H31.9ZM23.9257 21.0782C24.005 21.0625 24.0691 21.0493 24.1484 21.034H24.1957C24.2597 21.0204 24.3242 21.0204 24.3867 21.0047H24.4507C24.5148 21.0047 24.5621 20.9911 24.6261 20.9911H25.2472C25.3097 20.9911 25.3585 21.0047 25.4058 21.0047C25.4378 21.0047 25.4531 21.0047 25.4851 21.0204C25.5492 21.034 25.5964 21.034 25.6609 21.0493C25.6757 21.0493 25.6925 21.0493 25.7246 21.0629C25.8043 21.0782 25.8835 21.0918 25.9472 21.1071H25.9628C26.0269 21.1208 26.091 21.1344 26.1535 21.1637C26.1703 21.1637 26.1855 21.179 26.2175 21.179C26.2648 21.1926 26.3289 21.2079 26.3761 21.2368C26.3929 21.2368 26.4082 21.2504 26.425 21.2504C26.4875 21.2797 26.5519 21.295 26.616 21.3239H26.6312C26.7105 21.3512 26.7746 21.3801 26.8386 21.4247H26.8542C26.9179 21.4536 26.982 21.4961 27.046 21.525C27.0617 21.525 27.0617 21.5407 27.0765 21.5407C27.1406 21.568 27.1882 21.6122 27.2523 21.6411L27.2691 21.6547C27.4597 21.7848 27.6351 21.9297 27.8089 22.0747L27.8257 22.0883C27.9847 22.2469 28.1433 22.4208 28.2714 22.6086C28.6851 23.1868 28.9246 23.8661 28.9246 24.6028C28.9246 26.611 27.1253 28.2422 24.9128 28.2422C22.7003 28.2422 20.9011 26.611 20.9011 24.6028C20.8847 22.9122 22.1742 21.4825 23.9257 21.0782ZM8.26089 20.9758C10.4738 20.9758 12.2726 22.6086 12.2726 24.6165C12.2726 26.6247 10.4738 28.2571 8.26089 28.2571C6.04839 28.2571 4.24917 26.6247 4.24917 24.6165C4.24917 22.6086 6.04839 20.9758 8.26089 20.9758ZM45.2882 33.502C44.9386 35.3497 43.6796 36.9688 41.8335 37.936C40.0984 38.8469 37.9652 39.1352 35.7207 39.4239C34.4957 39.5825 33.2062 39.7563 31.964 40.0309C28.6531 40.768 25.4699 42.2129 22.3816 43.5985C18.4339 45.3762 14.7078 47.0516 11.255 47.0516C9.45581 47.0516 7.84761 46.5895 6.32027 45.6219C2.81831 43.4262 2.99214 39.3094 3.40737 37.0555C3.78862 34.9454 4.85542 32.9665 5.87456 31.0743C5.93706 30.9583 5.98589 30.8575 6.04839 30.7415C6.39956 30.8575 6.76558 30.9446 7.14722 31.0024C6.54292 34.0649 8.26089 37.2282 11.6042 38.7891L12.2097 39.0774L12.8617 38.8606C15.648 37.9649 18.2265 36.5063 20.5031 34.5559C21.7925 33.4575 22.8914 32.2735 23.8144 30.9872C24.1804 31.0454 24.5468 31.0606 24.9128 31.0606C28.2242 31.0606 31.0089 28.9942 31.8054 26.2204H34.4789C35.2753 29.0083 38.0613 31.0602 41.3726 31.0602C42.6941 31.0602 43.9195 30.7282 44.9691 30.1649C45.3843 31.2481 45.5109 32.3743 45.2882 33.502Z" fill="#FAFAFA"/>
</g>
<defs>
<clipPath id="clip0_74_4">
<rect width="50" height="50" fill="white"/>
</clipPath>
</defs>
</svg>
