<svg width="50" height="50" viewBox="0 0 50 50" fill="none" xmlns="http://www.w3.org/2000/svg">
<g id="Mongoose.js 1">
<path id="Vector" d="M27.3253 15.355C26.6706 15.3824 25.5644 15.5582 25.5644 15.6324C25.5644 15.6632 26.3441 16.0539 26.4038 16.0539C26.4585 16.0539 27.3636 16.5054 27.5648 16.6304C27.8273 16.7984 28.0152 16.9507 27.9601 16.9507C27.9249 16.9507 26.9956 16.591 26.6433 16.4398C26.3566 16.3191 25.1648 15.9636 24.5847 15.8265C24.2706 15.7531 24.1378 15.7257 23.6038 15.6281C22.8163 15.4843 21.8902 15.4757 21.4874 15.6082C20.9105 15.7957 20.7808 16.0261 20.7808 16.8761C20.7808 17.3449 20.8038 17.5429 20.9058 17.964C20.9503 18.1472 21.0753 18.55 21.1335 18.6859C21.1503 18.7289 21.205 18.8617 21.2507 18.9789C21.298 19.0949 21.4402 19.3953 21.5652 19.641C22.2671 21.0343 23.3183 22.1957 24.7999 23.2175C25.2671 23.5379 26.5367 24.1453 27.046 24.2906C27.1757 24.3258 27.2187 24.3988 27.1132 24.3988C26.996 24.3988 25.9218 24.1027 25.7019 24.0097C25.6182 23.9726 25.5333 23.9385 25.4472 23.9074C24.6828 23.5992 23.7062 22.9644 22.8988 22.2425C22.0139 21.4554 21.3066 20.4891 20.8238 19.4078C20.514 18.7086 20.3035 17.8941 20.2515 17.1843C20.221 16.7785 20.189 16.6808 20.0835 16.6855C20.0484 16.6855 19.7144 16.6734 19.3464 16.6535C18.3456 16.6105 16.9785 16.7207 15.6249 16.9543C13.0371 17.3949 10.2449 18.4129 7.37142 19.9644C6.89356 20.2232 6.42144 20.4924 5.95541 20.7718C5.90072 20.8039 5.72807 20.909 5.57103 21.0066C5.41518 21.1043 5.2308 21.2129 5.16361 21.2554C5.01518 21.3425 3.37221 22.4578 3.17533 22.6058C3.10189 22.6593 2.8976 22.8117 2.72533 22.9371C1.94525 23.5136 0.247206 24.8992 0.14955 25.0398C0.102284 25.1101 0.176894 25.1453 0.277675 25.1101C0.329628 25.0898 0.462441 25.0625 0.569081 25.0476C0.678847 25.0304 0.961269 24.9574 1.19603 24.8797C1.43432 24.8047 1.69057 24.7269 1.764 24.707C2.34525 24.5711 2.58041 24.5238 2.92025 24.4734C3.07455 24.4539 3.30189 24.4187 3.43002 24.3988C5.02299 24.1652 5.78314 24.1074 6.49252 24.1605C8.03353 24.2855 9.50775 24.5484 10.3515 24.8472C10.9831 25.0746 12.2679 25.7691 12.8328 26.1855C13.1593 26.4316 14.2089 27.4765 14.441 27.7922C14.6206 28.0425 14.8206 28.2609 14.8679 28.2609C14.8835 28.2609 14.9031 27.464 14.9078 26.4937L14.9183 24.7312L16.9816 24.7195C18.605 24.7117 19.055 24.7238 19.0828 24.7586C19.1222 24.8093 19.2167 24.9773 19.5265 25.5492C19.821 26.1 19.966 26.3656 20.0562 26.5242C20.1031 26.6113 20.2117 26.8129 20.3035 26.973C20.3886 27.1332 20.5488 27.4293 20.6589 27.632C20.7687 27.8351 20.8585 28.0074 20.8585 28.0148C20.8585 28.05 21.0203 28.2609 21.048 28.2609C21.0632 28.2609 21.1027 28.2011 21.13 28.1359C21.1609 28.0656 21.2433 27.9097 21.3105 27.7922C21.3808 27.675 21.5058 27.4461 21.5925 27.2859C21.6796 27.1257 21.7972 26.9031 21.8597 26.7976C22.032 26.489 22.212 26.155 22.3617 25.882C22.5203 25.5803 22.6836 25.281 22.8515 24.9843C22.9019 24.8867 22.9648 24.7843 22.9843 24.7586C23.0163 24.7234 23.4785 24.7113 25.1495 24.7187L27.2706 24.7308L27.2824 28.175C27.2902 30.8879 27.3011 31.6144 27.341 31.6144C27.3636 31.6097 27.5206 31.5195 27.6824 31.4066C27.9097 31.248 28.0074 31.1504 28.1128 30.9703C28.3523 30.5613 29.0312 29.9175 29.4859 29.6672C30.0384 29.3617 30.6328 29.1387 31.2499 29.0054C31.8769 28.8726 32.0617 28.8531 33.4855 28.8023C36.0839 28.7125 36.4683 28.6968 36.4882 28.6773C36.5003 28.6668 36.4656 28.5644 36.4136 28.4468C36.3589 28.334 36.2652 28.1234 36.1984 27.9832C35.9511 27.4492 35.9511 27.2703 36.2105 27.0082C36.3863 26.8246 36.8406 26.6644 37.6218 26.509C37.7503 26.4816 37.912 26.4465 37.9773 26.4238C38.0449 26.4039 38.1269 26.3886 38.162 26.3886C38.2613 26.3886 39.041 26.1976 39.2058 26.1351C39.3191 26.0883 39.9308 25.9554 40.6601 25.8148C40.9773 25.7523 41.8015 25.589 42.4835 25.4515C42.9152 25.3664 43.3656 25.2761 43.4828 25.2531C43.6003 25.2304 43.7699 25.1953 43.8554 25.18C43.9421 25.1605 44.055 25.1359 44.1101 25.1281C44.1648 25.1175 44.4398 25.0625 44.7187 25.0047C44.9278 24.9588 45.138 24.918 45.3492 24.8824C45.546 24.864 47.0245 24.5086 47.3648 24.3988C47.9066 24.223 48.0667 24.1531 48.4085 23.9242C48.7761 23.6742 48.8785 23.5382 49.2429 22.8117C49.6476 22.0047 49.7054 21.8687 49.8199 21.5285C49.9956 20.9871 49.9847 20.7808 49.7605 20.5535C49.6031 20.398 49.266 20.2379 49.0203 20.2027C48.8359 20.1797 48.8113 20.1871 48.7214 20.2847C48.6663 20.3433 48.6191 20.4132 48.6191 20.4375C48.6191 20.4726 48.5566 20.6437 48.3808 21.0648C48.364 21.1078 48.3292 21.2129 48.3015 21.298C48.2788 21.3851 48.2312 21.5058 48.2038 21.5715C48.1535 21.6808 48.1492 21.6613 48.1687 21.3578C48.1886 21.057 48.239 20.8039 48.3535 20.4207C48.3734 20.3476 48.4007 20.2226 48.4117 20.1445L48.4312 20.0039L48.0238 19.841C47.5999 19.6652 47.2347 19.5129 47.0246 19.4183C46.9527 19.3925 46.7773 19.3222 46.6324 19.2672C46.4827 19.2125 46.3027 19.1422 46.2281 19.107C46.0921 19.0468 45.9547 18.9899 45.816 18.9363C45.5535 18.834 44.6363 18.5226 43.855 18.2769C43.3335 18.117 42.8112 17.9594 42.2882 17.8043C42.1041 17.7574 41.921 17.7069 41.739 17.6527C41.6765 17.6359 41.5222 17.5933 41.4046 17.5629C40.7148 17.3722 40.5351 17.3246 40.2874 17.2543C40.151 17.215 40.0137 17.1785 39.8757 17.1449C39.8011 17.1265 39.5984 17.0793 39.4257 17.0363C39.1234 16.9617 37.857 16.6703 37.1702 16.5129L36.6804 16.4C36.5937 16.3804 36.4382 16.3496 36.3281 16.3297C36.2214 16.3101 35.9984 16.2672 35.8367 16.232C35.6765 16.2019 35.3316 16.1343 35.0722 16.0918C34.8144 16.0461 34.5046 15.9914 34.387 15.9715C33.3038 15.7761 33.2308 15.7652 31.2894 15.5504C30.0933 15.4144 28.4847 15.3 28.0929 15.3199C28.0304 15.3199 27.6828 15.3351 27.3253 15.355ZM22.7921 17.2773C23.8281 17.6132 24.8351 18.0695 25.5249 18.5148C26.0742 18.8691 26.7562 19.4351 26.941 19.6883L27.0187 19.7937L26.8706 19.7355C26.7886 19.7004 26.616 19.6261 26.4863 19.5632C25.7964 19.2429 25.7218 19.2168 25.7218 19.2871C25.7218 19.3054 25.882 19.5632 26.0742 19.8515C26.271 20.1445 26.4265 20.4023 26.4265 20.4257C26.4265 20.4453 26.3535 20.4132 26.2617 20.3507C25.9093 20.1093 25.082 19.7617 25.0351 19.832C25.023 19.8515 25.2773 20.175 25.6042 20.5535C25.9245 20.932 26.1917 21.2554 26.1917 21.28C26.1917 21.3379 26.1292 21.33 25.8316 21.2203C25.5249 21.1121 25.4472 21.1 25.4472 21.1746C25.4472 21.225 26.1093 22.1175 26.3718 22.4257C26.4464 22.5113 26.5058 22.5937 26.5058 22.6132C26.5058 22.7066 25.5874 22.1101 24.9374 21.5957C24.0078 20.8543 23.1093 19.8593 22.6367 19.0371C22.2472 18.3652 22.1144 18.0039 22.1144 17.6054C22.1144 17.3722 22.1253 17.325 22.212 17.2422C22.2628 17.189 22.3265 17.1445 22.3496 17.1445C22.3722 17.1445 22.5691 17.2043 22.7921 17.2773ZM35.1714 18.666C35.5468 18.7332 36.0609 18.8218 36.3081 18.866C36.5554 18.909 36.8574 18.959 36.9749 18.9789C37.0925 19.0019 37.2601 19.0324 37.3472 19.0519C37.4331 19.0718 37.6023 19.107 37.7199 19.1343C38.1074 19.2203 38.2019 19.2398 38.8367 19.3879C39.5187 19.548 39.6683 19.5785 39.8757 19.6211C40.0527 19.6562 40.2281 19.7234 40.2281 19.7539C40.2281 19.7664 40.0999 19.841 39.9429 19.9218C39.621 20.082 39.5538 20.0941 38.2292 20.1445C37.3277 20.1828 36.8453 20.1718 36.4058 20.1015C35.5191 19.9648 35.0617 19.716 34.7046 19.1773C34.5796 18.9941 34.4972 18.939 34.2101 18.866C34.1046 18.834 33.9433 18.791 33.8578 18.7636C33.7706 18.7363 33.6226 18.6933 33.5281 18.666C33.2456 18.5929 33.4062 18.55 33.9753 18.55C34.3671 18.55 34.6421 18.5761 35.1714 18.666ZM39.8878 24.1152C39.8557 24.1228 39.8223 24.1228 39.7902 24.1152C39.7628 24.1027 39.7824 24.0953 39.8374 24.0953C39.891 24.0953 39.9109 24.1031 39.8882 24.1148L39.8878 24.1152ZM39.7187 24.1609C39.7187 24.1804 39.673 24.2078 39.6132 24.2203C39.4913 24.2507 39.0136 24.3883 38.8566 24.4382C38.8015 24.4582 38.6245 24.5132 38.4644 24.5593C38.0601 24.6765 37.0804 24.9953 36.8179 25.0976C36.3234 25.2851 35.1624 25.9004 34.9992 26.0652C34.755 26.3031 34.68 26.5593 34.7167 27.0507C34.7273 27.2582 34.755 27.5195 34.7792 27.632C34.8265 27.8781 34.7988 27.9449 34.7046 27.823C34.6101 27.7023 34.4101 27.266 34.3519 27.0507C34.3199 26.9547 34.2851 26.825 34.2652 26.7625C34.1949 26.541 34.2222 26.2785 34.3324 26.1199C34.4804 25.8925 35.0144 25.5308 35.6413 25.2304C35.939 25.0855 36.8054 24.789 37.6023 24.5558C37.7624 24.509 37.9394 24.4539 37.9945 24.4386C38.5589 24.2476 39.7187 24.0644 39.7187 24.1609ZM27.3179 24.423C27.3054 24.434 27.2706 24.4386 27.2429 24.4261C27.2109 24.4156 27.2234 24.4035 27.266 24.4035C27.3101 24.3988 27.3331 24.4113 27.3179 24.423Z" fill="#FAFAFA"/>
<path id="Vector_2" d="M19.095 31.9657V34.6954H21.0481C22.5145 34.6954 23.0118 34.6836 23.0469 34.6485C23.1063 34.5899 23.1188 29.236 23.059 29.236C23.0395 29.236 23.0122 29.2665 22.9997 29.3016C22.984 29.3368 22.5571 30.0036 22.0473 30.7833C21.2403 32.0161 21.0161 32.3165 21.0161 32.1641C21.0161 32.1368 19.6793 30.0508 19.3375 29.5469C19.2917 29.4817 19.2514 29.4129 19.2168 29.3411C19.1848 29.2817 19.1465 29.2356 19.127 29.2356C19.1102 29.2356 19.095 30.4641 19.095 31.9657Z" fill="#FAFAFA"/>
</g>
</svg>
