<svg width="50" height="50" viewBox="0 0 50 50" fill="none" xmlns="http://www.w3.org/2000/svg">
<g id="4691284_mongodb_icon 2">
<path id="Vector" d="M35.7917 19.8292C33.1605 8.24583 26.9542 4.43958 26.2875 2.98333C25.5542 1.95625 24.7605 0 24.7605 0C24.7563 0.0395833 24.7521 0.0645833 24.75 0.102083V0.129167H24.748C24.7438 0.160417 24.7417 0.18125 24.7396 0.210417V0.241667H24.7355C24.7355 0.2625 24.7313 0.279167 24.7313 0.295833V0.35H24.725C24.723 0.366667 24.723 0.3875 24.7188 0.402083V0.445833H24.7146C24.7146 0.460417 24.7146 0.477083 24.7105 0.489583V0.53125H24.7063C24.7063 0.552083 24.7042 0.577083 24.7021 0.597917V0.602083C24.6959 0.6375 24.6896 0.672917 24.6834 0.70625V0.722917H24.6792C24.6771 0.73125 24.673 0.739583 24.673 0.747917V0.783333H24.6667V0.829167H24.6563V0.866667H24.6459V0.910417H24.6375V0.95H24.6292V0.985417H24.6167V1.01458H24.6084V1.05208H24.6V1.08125H24.5896V1.10833H24.5834V1.13958H24.575C24.573 1.14167 24.573 1.14583 24.573 1.14792V1.16875H24.5667C24.5646 1.17292 24.5646 1.17708 24.5646 1.18125V1.19375H24.5605C24.5584 1.2 24.5563 1.21042 24.5563 1.21458C24.55 1.22917 24.5417 1.24375 24.5355 1.25833V1.2625C24.5313 1.26667 24.5271 1.27292 24.525 1.27708V1.29375H24.5167V1.31042H24.5063V1.32708H24.5V1.34792H24.4875V1.37708H24.4792V1.38542H24.4709V1.40208H24.4625V1.425H24.4542V1.44167H24.4417V1.46458H24.4334V1.48125H24.423V1.49792H24.4167V1.51875H24.4063V1.53542H24.398V1.54792H24.3896V1.56458H24.3771V1.58333H24.3688V1.59583H24.3584V1.6125H24.35V1.63542H24.3396V1.64375H24.3334V1.66042H24.3209V1.66875H24.3125V1.68958H24.3042V1.69792H24.2959V1.71458H24.2855V1.72708H24.2792L24.275 1.73542V1.74375H24.2709C24.2688 1.74792 24.2667 1.74792 24.2667 1.75208L24.2646 1.75417C24.2625 1.76042 24.2605 1.76458 24.2563 1.76875V1.775C24.2459 1.7875 24.2375 1.8 24.2292 1.8125C24.225 1.81667 24.2146 1.82708 24.2105 1.83542V1.83958H24.2084C24.2063 1.84167 24.2021 1.84375 24.2021 1.84583V1.85208H24.198L24.1917 1.85833L24.1896 1.86042C24.1896 1.8625 24.1855 1.86458 24.1834 1.86875V1.87708H24.1771L24.173 1.88125V1.88542H24.1688C24.1688 1.88958 24.1646 1.88958 24.1646 1.89167V1.89792H24.1563C24.1563 1.9 24.1542 1.90208 24.1521 1.90417V1.91667H24.1459V1.925H24.1375V1.9375H24.1292V1.95417H24.1188V1.9375H24.1084V1.94583H24.1V1.95833H24.0896V1.975H24.0792V1.98333H24.0709V1.99583H24.0625V2.00417H24.0542V2.02083H24.0417V2.02917H24.0334V2.04167H24.023V2.05H24.0146V2.06042H24.0042V2.08125H24V2.08958H23.9875V2.1H23.9792V2.10417H23.9709V2.1125H23.9605V2.13333H23.9521V2.14167H23.9417V2.15H23.9334V2.1625H23.923V2.17083H23.9125V2.17917H23.9042V2.1875H23.8959V2.20833H23.8875V2.21875H23.875V2.22708H23.8667V2.23542H23.8563V2.24792H23.848V2.25625H23.8375V2.27083H23.8292V2.27917H23.8167V2.29167H23.8125V2.3H23.8042V2.30833H23.7938V2.31667H23.7855V2.32917H23.775V2.3375H23.7688C23.7667 2.33958 23.7667 2.34167 23.7667 2.34167V2.34583H23.7625L23.7542 2.35417C23.7542 2.35417 23.75 2.35833 23.7459 2.36042V2.37292H23.7375V2.38333H23.7292V2.39167H23.7209V2.4H23.7146L23.7084 2.40625V2.4125H23.7042L23.7 2.41667V2.42292H23.6959C23.6855 2.43542 23.6813 2.44375 23.6667 2.45625C23.6625 2.46042 23.65 2.47083 23.6417 2.47708C23.6167 2.49375 23.5855 2.52083 23.5605 2.54375C23.5438 2.55417 23.5271 2.56875 23.5146 2.57917L23.5125 2.58125C23.4792 2.60833 23.448 2.63333 23.4105 2.6625V2.66458C23.3605 2.70625 23.3125 2.74583 23.2563 2.79375L23.2521 2.79167C23.1334 2.88958 23.0084 3 22.8646 3.12292V3.125H22.8625C22.5105 3.43333 22.0917 3.82917 21.623 4.30833L21.5917 4.33958L21.5834 4.34792C18.75 7.27917 14.2855 13.3875 13.8146 23.2583C13.773 24.075 13.7813 24.8687 13.8271 25.6417V25.6604C14.0542 29.55 15.275 32.8708 16.8021 35.5687C17.4105 36.6437 18.0667 37.6229 18.7313 38.4979C21.0271 41.5292 23.3709 43.3271 23.9688 43.7625C24.8875 45.8937 24.8021 49.5521 24.8021 49.5521L26.1438 50C26.1438 50 25.8709 46.4562 26.2542 44.7458C26.373 44.2104 26.6542 43.7542 26.9813 43.3667C27.2021 43.2104 27.8563 42.7396 28.6417 42.0229C28.6792 41.9833 28.7 41.9479 28.7334 41.9104C31.9021 38.9562 37.8209 31.6812 35.7917 19.8292Z" fill="#FAFAFA"/>
</g>
</svg>
