<svg width="50" height="50" viewBox="0 0 50 50" fill="none" xmlns="http://www.w3.org/2000/svg">
<g id="chart-simple-solid 2">
<path id="Vector" d="M17.8571 7.8125C17.8571 5.22461 20.2567 3.125 23.2143 3.125H26.7857C29.7433 3.125 32.1429 5.22461 32.1429 7.8125V42.1875C32.1429 44.7754 29.7433 46.875 26.7857 46.875H23.2143C20.2567 46.875 17.8571 44.7754 17.8571 42.1875V7.8125ZM0 26.5625C0 23.9746 2.39955 21.875 5.35714 21.875H8.92857C11.8862 21.875 14.2857 23.9746 14.2857 26.5625V42.1875C14.2857 44.7754 11.8862 46.875 8.92857 46.875H5.35714C2.39955 46.875 0 44.7754 0 42.1875V26.5625ZM41.0714 9.375H44.6429C47.6004 9.375 50 11.4746 50 14.0625V42.1875C50 44.7754 47.6004 46.875 44.6429 46.875H41.0714C38.1138 46.875 35.7143 44.7754 35.7143 42.1875V14.0625C35.7143 11.4746 38.1138 9.375 41.0714 9.375Z" fill="#FAFAFA"/>
</g>
</svg>
