<svg width="50" height="50" viewBox="0 0 50 50" fill="none" xmlns="http://www.w3.org/2000/svg">
<g id="4691205_redux_icon 2">
<path id="Vector" d="M34.6522 34.3833C36.4626 34.227 37.8668 32.6333 37.7751 30.7291C37.6793 28.8249 36.1189 27.2958 34.2168 27.2958H34.0897C32.1251 27.3604 30.5939 29.0124 30.6564 30.9812C30.7189 31.9791 31.1272 32.7916 31.6855 33.3833C29.5022 37.6291 26.2251 40.75 21.2605 43.3729C17.9209 45.1187 14.3939 45.777 10.9605 45.3083C8.08969 44.9041 5.84386 43.6208 4.46886 41.5625C2.41052 38.4395 2.22302 35.0708 3.93761 31.6999C5.18969 29.2645 7.06052 27.4854 8.31052 26.6104C7.99802 25.7999 7.62302 24.427 7.43552 23.3979C-1.80614 30.0166 -0.866561 39.0666 1.94177 43.3437C4.03344 46.4645 8.31052 48.4604 12.9918 48.4604C14.2397 48.4604 15.5522 48.3687 16.8314 48.0562C24.948 46.4958 31.0959 41.627 34.623 34.4479L34.6522 34.3833ZM45.7939 26.5791C40.9584 20.8979 33.8397 17.777 25.723 17.777H24.6605C24.1334 16.6229 22.9168 15.9041 21.5418 15.9041H21.448C19.4834 15.9041 17.9522 17.5916 18.0168 19.5562C18.0793 21.427 19.6709 22.9895 21.5751 22.9895H21.7293C23.1355 22.927 24.3522 22.052 24.8501 20.8041H26.0064C30.8168 20.8041 35.3709 22.2083 39.523 24.9541C42.7043 27.0458 44.9855 29.7916 46.2647 33.0708C47.3855 35.7541 47.3251 38.377 46.1709 40.5645C44.3918 43.9958 41.3939 45.8083 37.4314 45.8083C34.9334 45.8083 32.5001 45.027 31.2501 44.4666C30.5022 45.0874 29.2522 46.1187 28.3459 46.7437C31.0918 47.9895 33.8709 48.7083 36.5543 48.7083C42.6418 48.7083 47.1647 45.277 48.8834 41.9666C50.7543 38.2208 50.6001 31.9166 45.823 26.5166L45.7939 26.5791ZM13.5209 35.5041C13.5814 37.377 15.173 38.9375 17.0793 38.9375H17.2043C19.2022 38.875 20.7314 37.2229 20.6376 35.2541C20.6376 33.3812 19.0147 31.8229 17.1105 31.8229H16.9834C16.8584 31.8229 16.673 31.8229 16.5147 31.8833C13.9251 27.5124 12.8314 22.8291 13.2397 17.777C13.4876 13.9687 14.7376 10.6583 16.9834 7.91245C18.8564 5.57078 22.3834 4.41453 24.7876 4.35412C31.5293 4.22703 34.3397 12.627 34.5564 15.9666L37.6772 16.902C36.9584 6.66453 30.5939 1.2937 24.5064 1.2937C18.7939 1.2937 13.5209 5.44578 11.3959 11.5333C8.49386 19.65 10.398 27.452 13.9564 33.6958C13.6459 34.102 13.4584 34.8187 13.5209 35.5041Z" fill="#FAFAFA"/>
</g>
</svg>
