<svg width="50" height="50" viewBox="0 0 50 50" fill="none" xmlns="http://www.w3.org/2000/svg">
<g id="scrum-svgrepo-com 2">
<path id="Vector" d="M32.2641 33.3577C32.3641 33.364 32.4719 33.3765 32.5797 33.3765C34.1063 33.3781 35.6344 33.3687 37.161 33.3843C37.4953 33.3874 37.5953 33.2734 37.5781 32.9531C37.5563 32.5359 37.5735 32.1171 37.5735 31.6015C39.3063 32.8765 40.9813 34.1077 42.7 35.3734C40.9938 36.6296 39.3188 37.8624 37.5735 39.1484C37.5735 38.6624 37.5735 38.2609 37.5735 37.8593C37.5735 37.3406 37.5735 37.339 37.0688 37.339C27.3078 37.339 17.5453 37.339 7.7844 37.339C7.31253 37.339 7.31253 37.339 7.31253 36.864C7.31253 35.8343 7.32659 34.8046 7.30471 33.7765C7.2969 33.4421 7.40471 33.3671 7.72503 33.3687C12.9735 33.3781 18.2219 33.3859 23.4703 33.3718C26.161 33.364 28.2844 32.2499 29.6891 29.9312C32.2235 25.7437 29.5813 20.2593 24.725 19.5531C20.975 19.0077 17.4891 21.5249 16.8532 25.339C16.786 25.7359 16.7813 26.1437 16.7422 26.6218C17.3563 26.539 17.9125 26.4624 18.5422 26.3781C17.5563 28.2843 16.6047 30.1249 15.6391 31.9906C14.1594 30.4656 12.7016 28.964 11.2766 27.4952C11.6344 27.4359 12.1094 27.3671 12.5797 27.2687C12.6688 27.2499 12.8 27.1062 12.7969 27.0234C12.7703 26.0249 12.8391 25.0374 13.0344 24.0577C13.0407 24.0281 13.0266 23.9937 13.0172 23.9359C12.0641 23.7734 11.1797 23.4296 10.3782 22.8765C8.41878 21.5202 7.39378 18.9968 7.87503 16.6968C8.39846 14.1906 10.2891 12.3171 12.7328 11.8546C14.3172 11.5562 15.786 11.8406 17.15 12.6781C17.3906 12.8265 17.5375 12.8484 17.6953 12.5906C17.7875 12.439 17.9266 12.3171 18.086 12.1327C18.2844 12.9327 18.4703 13.6812 18.6547 14.4296C18.7172 14.6812 18.7657 14.9374 18.8391 15.1859C18.9188 15.4546 18.8375 15.5749 18.5532 15.5562C17.7313 15.4999 16.9078 15.4499 16.086 15.3952C15.8828 15.3812 15.6813 15.3593 15.4203 15.3343C15.6235 15.0781 15.8078 14.8484 16.0094 14.5968C15.5657 14.2593 15.0766 14.0906 14.5672 14.0077C12.1047 13.6046 9.9344 15.4968 9.9844 17.989C10.0219 19.9015 11.6344 21.6109 13.5391 21.7734C13.786 21.7937 13.8719 21.6687 13.9672 21.4843C15.3172 18.8937 17.35 17.0624 20.1157 16.1093C26.5141 13.9031 33.1938 17.8562 34.4266 24.3265C35.0344 27.5124 34.3422 30.4218 32.4094 33.0296C32.3563 33.1015 32.3078 33.1781 32.261 33.2546C32.2516 33.2687 32.2641 33.2968 32.2719 33.3562L32.2641 33.3577Z" fill="#FAFAFA"/>
</g>
</svg>
