<svg width="50" height="50" viewBox="0 0 50 50" fill="none" xmlns="http://www.w3.org/2000/svg">
<g id="9055799_bxl_tailwind_css_icon 2">
<path id="Vector" d="M38.5418 19.8124C36.9794 19.2743 35.6003 18.3068 34.5626 17.0208C33.4189 15.5879 31.9627 14.4356 30.3053 13.6521C28.6479 12.8685 26.8332 12.4744 25.0001 12.4999C22.5342 12.3253 20.093 13.0859 18.1626 14.6301C16.2322 16.1744 14.9543 18.3892 14.5834 20.8333C15.314 19.6109 16.4135 18.6517 17.7238 18.0939C19.0341 17.5361 20.4876 17.4084 21.8751 17.7291C23.4349 18.2829 24.8117 19.256 25.8542 20.5416C27.0042 21.963 28.4632 23.1034 30.1202 23.8759C31.7773 24.6485 33.5887 25.0329 35.4167 24.9999C37.8827 25.1746 40.3239 24.414 42.2542 22.8697C44.1846 21.3254 45.4625 19.1107 45.8334 16.6666C45.1161 17.9036 44.0201 18.8772 42.7071 19.4437C41.3941 20.0101 39.9338 20.1394 38.5418 19.8124ZM11.4584 30.1874C13.0208 30.7255 14.3999 31.6931 15.4376 32.9791C16.5812 34.4119 18.0375 35.5642 19.6949 36.3478C21.3523 37.1314 23.167 37.5255 25.0001 37.4999C27.466 37.6746 29.9072 36.914 31.8376 35.3697C33.7679 33.8254 35.0458 31.6107 35.4167 29.1666C34.6862 30.389 33.5866 31.3481 32.2763 31.9059C30.9661 32.4637 29.5126 32.5915 28.1251 32.2708C26.5653 31.717 25.1885 30.7438 24.1459 29.4583C22.9929 28.0404 21.5333 26.9025 19.877 26.1303C18.2206 25.358 16.4107 24.9715 14.5834 24.9999C12.1175 24.8253 9.6763 25.5859 7.74593 27.1301C5.81556 28.6744 4.53767 30.8892 4.16675 33.3333C4.88405 32.0962 5.9801 31.1226 7.29307 30.5562C8.60604 29.9897 10.0664 29.8604 11.4584 30.1874Z" fill="#FAFAFA"/>
</g>
</svg>
