<svg width="50" height="50" viewBox="0 0 50 50" fill="none" xmlns="http://www.w3.org/2000/svg">
<g id="vitejs 1" clip-path="url(#clip0_36_666)">
<path id="Vector" d="M49.4808 7.63179L26.3298 48.8641C25.8518 49.7154 24.6237 49.7204 24.1386 48.8733L0.528617 7.63562C-2.68221e-05 6.71256 0.792554 5.59431 1.84291 5.78145L25.0187 9.90721C25.1666 9.93353 25.318 9.93327 25.4658 9.90645L48.1568 5.78721C49.2037 5.59719 50 6.70681 49.4808 7.63179Z" fill="#FAFAFA"/>
<path id="Vector_2" d="M19.022 4.2039L19.022 4.2039C18.9935 4.20947 18.968 4.22426 18.9493 4.24551L18.5813 3.92256L18.9493 4.24551C18.9307 4.26673 18.9199 4.29321 18.9183 4.32073L18.9183 4.32074L17.8645 22.0486L17.8645 22.0487C17.8633 22.068 17.8667 22.0874 17.8744 22.1053C17.8821 22.1232 17.894 22.1393 17.9093 22.1522M19.022 4.2039L17.9093 22.1522M19.022 4.2039L36.1543 0.860267C36.2528 0.841033 36.3293 0.931661 36.304 1.01924L33.0994 12.0837L33.0994 12.0837C32.8644 12.8955 33.5734 13.6609 34.3976 13.5026L34.3977 13.5026L39.3078 12.5588L39.3079 12.5588C39.4172 12.5378 39.4934 12.6493 39.4483 12.7388L39.4483 12.739L25.5003 40.4635L25.2626 40.8292L25.2625 40.8294C25.2347 40.8722 25.2098 40.8827 25.194 40.887C25.1719 40.8929 25.1395 40.8926 25.1041 40.8782C25.0688 40.8638 25.046 40.8414 25.035 40.8227C25.0273 40.8095 25.017 40.7856 25.0272 40.736L24.5377 40.6345L25.0273 40.736L27.2793 29.8793C27.4539 29.0383 26.6618 28.3262 25.8461 28.5728L25.846 28.5728L22.8997 29.4642L22.8997 29.4643M19.022 4.2039L22.8997 29.4643M17.9093 22.1522C17.9246 22.165 17.9428 22.1743 17.9626 22.1791C17.9824 22.1838 18.003 22.184 18.0228 22.1794M17.9093 22.1522L18.0228 22.1794M18.0228 22.1794C18.0228 22.1794 18.0228 22.1794 18.0229 22.1794M18.0228 22.1794L18.0229 22.1794M18.0229 22.1794L22.7928 21.083C23.5901 20.8997 24.318 21.5995 24.1523 22.4066C24.1523 22.4067 24.1523 22.4067 24.1523 22.4068C24.1523 22.4068 24.1523 22.4068 24.1523 22.4068L22.7352 29.3184C22.7352 29.3184 22.7352 29.3184 22.7352 29.3184C22.7167 29.409 22.8027 29.4936 22.8997 29.4643M18.0229 22.1794L22.8997 29.4643" fill="#FAFAFA" stroke="black"/>
</g>
<defs>
<clipPath id="clip0_36_666">
<rect width="50" height="50" fill="white"/>
</clipPath>
</defs>
</svg>
