<svg width="50" height="50" viewBox="0 0 50 50" fill="none" xmlns="http://www.w3.org/2000/svg">
<g id="server-solid 2">
<path id="Vector" d="M6.25 3.125C2.80273 3.125 0 5.92773 0 9.375V15.625C0 19.0723 2.80273 21.875 6.25 21.875H43.75C47.1973 21.875 50 19.0723 50 15.625V9.375C50 5.92773 47.1973 3.125 43.75 3.125H6.25ZM33.5938 10.1562C34.2154 10.1562 34.8115 10.4032 35.251 10.8427C35.6906 11.2823 35.9375 11.8784 35.9375 12.5C35.9375 13.1216 35.6906 13.7177 35.251 14.1573C34.8115 14.5968 34.2154 14.8438 33.5938 14.8438C32.9721 14.8438 32.376 14.5968 31.9365 14.1573C31.4969 13.7177 31.25 13.1216 31.25 12.5C31.25 11.8784 31.4969 11.2823 31.9365 10.8427C32.376 10.4032 32.9721 10.1562 33.5938 10.1562ZM38.2812 12.5C38.2812 11.8784 38.5282 11.2823 38.9677 10.8427C39.4073 10.4032 40.0034 10.1562 40.625 10.1562C41.2466 10.1562 41.8427 10.4032 42.2823 10.8427C42.7218 11.2823 42.9688 11.8784 42.9688 12.5C42.9688 13.1216 42.7218 13.7177 42.2823 14.1573C41.8427 14.5968 41.2466 14.8438 40.625 14.8438C40.0034 14.8438 39.4073 14.5968 38.9677 14.1573C38.5282 13.7177 38.2812 13.1216 38.2812 12.5ZM6.25 28.125C2.80273 28.125 0 30.9277 0 34.375V40.625C0 44.0723 2.80273 46.875 6.25 46.875H43.75C47.1973 46.875 50 44.0723 50 40.625V34.375C50 30.9277 47.1973 28.125 43.75 28.125H6.25ZM33.5938 35.1562C34.2154 35.1562 34.8115 35.4032 35.251 35.8427C35.6906 36.2823 35.9375 36.8784 35.9375 37.5C35.9375 38.1216 35.6906 38.7177 35.251 39.1573C34.8115 39.5968 34.2154 39.8438 33.5938 39.8438C32.9721 39.8438 32.376 39.5968 31.9365 39.1573C31.4969 38.7177 31.25 38.1216 31.25 37.5C31.25 36.8784 31.4969 36.2823 31.9365 35.8427C32.376 35.4032 32.9721 35.1562 33.5938 35.1562ZM39.0625 37.5C39.0625 36.8784 39.3094 36.2823 39.749 35.8427C40.1885 35.4032 40.7846 35.1562 41.4062 35.1562C42.0279 35.1562 42.624 35.4032 43.0635 35.8427C43.5031 36.2823 43.75 36.8784 43.75 37.5C43.75 38.1216 43.5031 38.7177 43.0635 39.1573C42.624 39.5968 42.0279 39.8438 41.4062 39.8438C40.7846 39.8438 40.1885 39.5968 39.749 39.1573C39.3094 38.7177 39.0625 38.1216 39.0625 37.5Z" fill="#FAFAFA"/>
</g>
</svg>
